<svg xmlns="http://www.w3.org/2000/svg" viewBox="0 0 96 96"><style>.st0{fill:#a3a3a3}.st1{fill:#ffc847}.st2{display:none}</style><g id="brilliants-jewelery"><path class="st1" d="M52.5 21.4h-9L48 35.5zm-10.8 0h-6.2l10.4 12.9zm19.1-1.6l-4-6.7h-5.2l2.6 6.7zm-8.4 0l-2.6-6.7h-3.6l-2.6 6.7zm-2.3 14.5l4.2-12.9h6.2zm-5.7-21.2h-5.2l-4 6.7h6.6z"/><path class="st0" d="M58.2 28.9L54 33.8c10.4 2.7 18 12 18 23.2 0 13.3-10.7 24-24 24S24 70.3 24 57c0-11.2 7.6-20.6 18-23.2l-4.1-4.9C27.4 33 20 43.1 20 55c0 15.5 12.5 28 28 28s28-12.5 28-28c0-11.9-7.4-22-17.8-26.1z"/></g></svg>