<svg xmlns="http://www.w3.org/2000/svg" viewBox="0 0 96 96"><style>.st0{fill:#a3a3a3}.st1{fill:#ffc847}.st2{display:none}</style><g id="men-rings"><path class="st0" d="M48 24.9c-8.7 0-19.4 1.7-23.6 6.2-1.6 1.7-2.8 8.6-3.3 11-.6 3.2-1.1 8.2-1.1 12.8 0 15.5 12.5 28 28 28s28-12.5 28-28c0-4.6-.5-9.7-1.1-12.8-.5-2.3-1.5-9.1-3.1-10.8-4.3-4.5-15-6.4-23.8-6.4zm0 56c-13.3 0-24-10.7-24-24s10.7-24 24-24 24 10.7 24 24-10.7 24-24 24z"/><path class="st1" d="M48 23.2c8.8 0 19.5 1.8 24 6.3-.3-1-.7-3.9-1-4.3-4.1-4.4-14.5-6.2-23-6.2-8.4 0-18.7 1.7-22.8 6-.4.4-.8 3.2-1.1 4.3 4.5-4.3 15.1-6.1 23.9-6.1z"/></g></svg>