<svg xmlns="http://www.w3.org/2000/svg" viewBox="0 0 96 96"><style>.st0{fill:#a3a3a3}.st1{fill:#ffc847}.st2{display:none}</style><g id="necklace"><path class="st1" d="M49.1 69.8c-.1-.1-2.1-.1-2.2 0L41.7 75c-.6.6-.6 1.6 0 2.2l5.2 5.2c.3.3.7.4 1.1.4.4 0 .8-.2 1.1-.4l5.2-5.2c.6-.6.6-1.6 0-2.2l-5.2-5.2zm4.1 6.3L48 81.3h-.2l-5.2-5.2v-.2l5.2-5.2h.2l5.2 5.2c.1.1.1.2 0 .2z"/><path class="st1" d="M48.8 72.8c-.2-.2-.5-.3-.8-.3s-.6.1-.8.3l-2.4 2.4c-.4.4-.4 1.1 0 1.5l2.4 2.4c.2.2.5.3.8.3s.6-.1.8-.3l2.4-2.4c.4-.4.4-1.1 0-1.5l-2.4-2.4zM48 78l-1.9-2 1.9-1.9 1.9 1.9-1.9 2zm7.7-11.4c-.2-.2-.5-.3-.8-.3s-.6.1-.8.3L51.8 69c-.4.4-.4 1.1 0 1.5l2.4 2.4c.2.2.5.3.8.3s.6-.1.8-.3l2.4-2.4c.4-.4.4-1.1 0-1.5l-2.5-2.4zm-.7 5.1l-2-2 1.9-1.9 1.9 1.9-1.8 2zm-13.2-5.1c-.2-.2-.5-.3-.8-.3s-.6.1-.8.3L37.9 69c-.4.4-.4 1.1 0 1.5l2.4 2.4c.2.2.5.3.8.3s.6-.1.8-.3l2.4-2.4c.4-.4.4-1.1 0-1.5l-2.5-2.4zm-.8 5.1l-1.9-1.9 1.9-1.9 1.9 1.9-1.9 1.9zm-3-9.3c-.1-.1-.3-.2-.4-.2s-.3.1-.4.2l-1.4 1.4c-.2.2-.2.6 0 .9l1.4 1.4c.1.1.3.2.4.2s.3-.1.4-.2l1.4-1.4c.2-.2.2-.6 0-.9L38 62.4zm-.5 3l-1.1-1.1 1.1-1.1 1.1 1.1-1.1 1.1zm21.4-3c-.1-.1-.3-.2-.4-.2s-.3.1-.4.2l-1.4 1.4c-.2.2-.2.6 0 .9l1.4 1.4c.1.1.3.2.4.2s.3-.1.4-.2l1.4-1.4c.2-.2.2-.6 0-.9l-1.4-1.4zm-.4 3l-1.1-1.1 1.1-1.1 1.1 1.1-1.1 1.1zm0 0"/><path class="st0" d="M47.3 71.3c-1-1.3-28.1-33.1-20.4-48.5 2.7-5.4 11.8-8.1 21.1-8.1 9.4 0 18.5 2.7 21.2 8.1C76.8 38.3 49.9 70 48.9 71.3h-1.6zm.7-54.6c-8.6 0-17.1 2.4-19.4 7C22.2 36.6 43.9 63.4 48 69.1c4.1-5.7 25.7-32.5 19.3-45.3-2.2-4.7-10.7-7.1-19.3-7.1z"/></g></svg>