<svg xmlns="http://www.w3.org/2000/svg" viewBox="0 0 96 96"><style>.st0{fill:#a3a3a3}.st1{fill:#ffc847}.st2{display:none}</style><g id="amulets"><path class="st0" d="M57.4 62.3c-1.6-.9-2.6-2.5-2.9-4.3 2.2-2.3 3.5-5.6 3.5-9.4 0-6.8-4.5-12.4-10-12.4s-10 5.5-10 12.4c0 3.8 1.4 7.1 3.5 9.4-.3 1.8-1.3 3.5-2.9 4.4-5.3 3.2-8.8 9-8.8 15.6v2c0 1.5 1.2 2.7 2.7 2.7h31c1.5 0 2.7-1.2 2.7-2.7v-2c0-6.7-3.5-12.5-8.8-15.7zm0 0"/><path class="st1" d="M37.9 60.2c.3-.5.5-1 .7-1.6-4.9-3.1-8.1-8.5-8.1-14.7 0-9.7 7.8-17.5 17.5-17.5s17.5 7.8 17.5 17.5c0 6.2-3.3 11.7-8.2 14.8.2.5.4 1.1.7 1.5 6.2-3.5 10.4-10.1 10.4-17.8C68.4 31.1 59.3 22 48 22c-11.3 0-20.4 9.1-20.4 20.4 0 7.7 4.2 14.3 10.3 17.8z"/></g></svg>