<svg xmlns="http://www.w3.org/2000/svg" viewBox="0 0 96 96"><style>.st0{fill:#a3a3a3}.st1{fill:#ffc847}.st2{display:none}</style><g id="chains"><path class="st1" d="M38.8 58.5l-.1-1.9c0-1-.8-1.7-1.7-1.7H26.3c-.8 0-1.5.6-1.7 1.3v6.3c.2.8.9 1.3 1.7 1.3H37c1 0 1.7-.8 1.7-1.7v-1.9h.1v-1.7zm-12.5 3.6v-5.5H37v5.5H26.3z"/><path class="st0" d="M24.6 58.5h-2.1v-1.9c0-1-.8-1.7-1.7-1.7H10.1c-1 0-1.7.8-1.7 1.7v1.9H6.9c-.5 0-.9.4-.9.9s.4.9.9.9h1.5v1.9c0 1 .8 1.7 1.7 1.7h10.7c1 0 1.7-.8 1.7-1.7v-1.9h2.1v-1.8zm-14.5 3.6v-5.5h10.7v5.5H10.1zm79-3.6h-1.5v-1.9c0-1-.8-1.7-1.7-1.7H75.2c-1 0-1.7.8-1.7 1.7v1.9h-2v-1.9c0-1-.8-1.7-1.7-1.7H58.9c-1 0-1.7.8-1.7 1.7v1.9h-2v-1.9c0-1-.8-1.7-1.7-1.7H42.7c-1 0-1.7.8-1.7 1.7v1.9h-2.2v1.8H41v1.9c0 1 .8 1.7 1.7 1.7h10.7c1 0 1.7-.8 1.7-1.7v-1.9h2v1.9c0 1 .8 1.7 1.7 1.7h10.7c1 0 1.7-.8 1.7-1.7v-1.9h2v1.9c0 1 .8 1.7 1.7 1.7h10.7c1 0 1.7-.8 1.7-1.7v-1.9h1.5c.5 0 .9-.4.9-.9.3-.5-.1-.9-.6-.9zm-46.4 3.6v-5.5h10.7v5.5H42.7zm16.3 0v-5.5h10.7v5.5H59zm16.2 0v-5.5h10.7v5.5H75.2z"/></g></svg>