<svg xmlns="http://www.w3.org/2000/svg" viewBox="0 0 96 96"><style>.st0{fill:#a3a3a3}.st1{fill:#ffc847}.st2{display:none}</style><g id="earring"><path class="st1" d="M32.2 82.5c.3.3.7.4 1.1.4.4 0 .8-.1 1.1-.4 2.9-2.9 11-10.9 11.1-11.1 3.4-3.4 3.4-8.8 0-12.2-1.7-1.7-3.9-2.5-6.1-2.5-2.2 0-4.4.8-6.1 2.5-1.7-1.7-3.9-2.5-6.1-2.5-2.2 0-4.4.8-6.1 2.5-3.4 3.4-3.4 8.8 0 12.2.1.2 8.1 8.2 11.1 11.1z"/><path class="st0" d="M76.8 63.7l-.7 8.7s-20.3-3.6-21-9.9c-.7-6.2 1.9-29.9 1.9-29.9s.2-1 1.5-1c1.5 0 1.6 1 1.6 1s-2.5 24.4 1 27.2c2.3 1.9 15.7 3.9 15.7 3.9zM55.5 36.5l-.4 2.8-7.1-1.4.3-1.4z"/><path class="st1" d="M78.7 56.7l-1.9 24.8s.8 3.4 1.9.8c2.1-5.1 3.3-9.3 4.2-16.5.6-4.4.8-6.6-.9-8-1.2-1.1-3.3-1.1-3.3-1.1z"/><path class="st0" d="M60.6 36.5s14.8 1 17.9 1.5c3.1.5 3.5 2.8 3.5 4.3 0 4.2-1.5 12.3-1.5 12.3h-1.6s1-10.6-.2-12.3c-1.2-1.9-18.4-2.9-18.4-2.9l.3-2.9zM29.8 53.8l1.8-21.2s0-1 1.5-1c1.4 0 1.7.9 1.7.9l1.8 21.4s0 1.6-3.4 1.6-3.4-1.7-3.4-1.7z"/></g></svg>