<svg xmlns="http://www.w3.org/2000/svg" viewBox="0 0 96 96"><style>.st0{fill:#a3a3a3}.st1{fill:#ffc847}.st2{display:none}</style><g id="laces"><path class="st0" d="M47.2 45.9c4.9 1.6 8.6 4.3 5.6 9.8-2.4 4.4-6.4 7.9-9.8 11.4-2.1 2.3-5.4 5.3-5.8 8.6-.3 3.2 2.2 6.8 5.4 7.3 3.8.6 7.5-2.4 10.2-4.6 3.9-3.3 7.4-7.5 9.9-12 5.9-10.9-3.7-23.9-15.4-23.1l-.1 2.6zm14.7 12.6c.5 5.2-2.5 9.2-5.6 13-2.9 3.5-6.4 7-10.6 8.7-4.5 1.8-7.5-2.9-5.2-6.6 4-6.5 10.9-10.7 14.6-17.4 2.5-4.6.8-7.9-2.4-10.1 5.2 1.6 8.6 6.3 9.2 12.4zM34.1 41.6"/><path class="st1" d="M39.6 36.7c-4.4 0-8 3.6-8 8s3.6 8 8 8 8-3.6 8-8-3.6-8-8-8zm0 13c-2.8 0-5-2.2-5-5s2.2-5 5-5 5 2.2 5 5-2.3 5-5 5z"/></g></svg>