<svg xmlns="http://www.w3.org/2000/svg" viewBox="0 0 96 96"><style>.st0{fill:#a3a3a3}.st1{fill:#ffc847}.st2{display:none}</style><g id="crosses"><path class="st1" d="M48.9 27.2l-.6-8.2c0-.2-.1-.3-.3-.3-.2 0-.3.1-.3.3l-.6 8.2c.3 0 .6-.1.9-.1.3 0 .6 0 .9.1zm-3.5.4l-3.2-7.7c-.1-.1-.2-.2-.4-.2s-.2.2-.2.4l2 8.5c.6-.5 1.2-.8 1.8-1zm-4.3 3.3l.1.1.3.3c.3-.6.7-1.2 1.1-1.7l-6-7c-.1-.1-.3-.1-.4 0-.1.1-.2.3-.1.4l5 7.9zm-2 2.5l.1.1c.1 0 .2.1.3.1.4-.4.8-.8 1.3-1.1 0-.3-.2-.6-.5-.8l-8-4.9c-.1-.1-.3 0-.4.1-.1.1-.1.3 0 .4l7.2 6.1zm-9.9-.6l8.6 3.6h.1c.2-.7.4-1.3.8-1.9-.1 0-.1-.1-.2-.1l-9.1-2.2c-.2 0-.3.1-.4.2 0 .2.1.4.2.4zm7.9 5.7h.8v-.9h-.1l-9.3.7c-.2 0-.3.1-.3.3 0 .2.1.3.3.3l5.5.4c.8-.5 1.9-.8 3.1-.8zm30.5-.2l-9.3-.7h-.1v1h.8c1.2 0 2.2.3 3.2.9l5.5-.4c.2 0 .3-.1.3-.3-.1-.4-.2-.5-.4-.5zm-10.3-3.8c.3.6.6 1.2.7 1.9h.1l8.6-3.6c.1-.1.2-.2.2-.4s-.2-.2-.4-.2l-9.1 2.2s0 .1-.1.1zm-1.7-2.7c-.2.2-.3.4-.4.7.5.3.9.7 1.3 1.1.1 0 .3-.1.4-.2l7.1-6.1c.1-.1.1-.3 0-.4-.1-.1-.3-.2-.4-.1l-8 4.9c.1 0 0 .1 0 .1zm-1.1-.5c.2-.1.3-.2.4-.4l4.9-8c.1-.1 0-.3-.1-.4-.1-.1-.3-.1-.4 0l-6 7c.5.5.9 1.1 1.2 1.8zM54.4 20c0-.2-.1-.3-.2-.4-.2 0-.3 0-.4.2l-3.2 7.7c.6.2 1.2.6 1.7 1l2.1-8.5zm0 0"/><path class="st0" d="M62.5 44.7h-.6v-.2c0-1.6-1.3-2.9-2.9-2.9-1.6 0-2.9 1.3-2.9 2.9v.2H52v-4.1h.2c1.6 0 2.9-1.3 2.9-2.9 0-1.6-1.3-2.9-2.9-2.9H52v-.6c0-2.2-1.8-3.9-3.9-3.9-2.2 0-3.9 1.8-3.9 3.9v.6H44c-1.6 0-2.9 1.3-2.9 2.9 0 1.6 1.3 2.9 2.9 2.9h.2v4.1H40v-.2c0-1.6-1.3-2.9-2.9-2.9-1.6 0-2.9 1.3-2.9 2.9v.2h-.6c-2.2 0-3.9 1.8-3.9 3.9 0 2.2 1.8 3.9 3.9 3.9h.6v.2c0 1.6 1.3 2.9 2.9 2.9 1.6 0 2.9-1.3 2.9-2.9v-.2h4.1v19.7h-.2c-1.6 0-2.9 1.3-2.9 2.9 0 1.6 1.3 2.9 2.9 2.9h.2v.6c0 2.2 1.8 3.9 3.9 3.9 2.2 0 3.9-1.8 3.9-3.9V78h.2c1.6 0 2.9-1.3 2.9-2.9 0-1.6-1.3-2.9-2.9-2.9h-.2V52.6H56v.2c0 1.6 1.3 2.9 2.9 2.9 1.6 0 2.9-1.3 2.9-2.9v-.2h.6c2.2 0 3.9-1.8 3.9-3.9.1-2.2-1.7-4-3.8-4zm0 0"/></g></svg>