<svg xmlns="http://www.w3.org/2000/svg" viewBox="0 0 96 96"><style>.st0{fill:#a3a3a3}.st1{fill:#ffc847}.st2{display:none}</style><g id="pendants"><path class="st0" d="M70.4 26.6c-.9 0-1.6.7-1.6 1.6 0 3.1-5.6 6.5-14.2 7.7 0 .2 0 .4-.1.6l-.7 2.7C64.5 38 72 33.7 72 28.2c0-.9-.7-1.6-1.6-1.6zm-28.7 9.9c0-.2 0-.3-.1-.5-8.8-1.2-14.5-4.6-14.5-7.8 0-.9-.7-1.6-1.6-1.6-.9 0-1.6.7-1.6 1.6 0 5.5 7.6 9.9 18.4 11.1l-.6-2.8zm4.5 4.9c.2.9 1 1.5 2 1.5.9 0 1.7-.6 2-1.5l1.4-5.6c.1-.3 0-.6-.2-.9-.2-.2-.5-.4-.8-.4h-4.8c-.3 0-.6.1-.8.4-.2.2-.3.6-.2.9l1.4 5.6zm0 0"/><path class="st1" d="M47.2 66.2c.2.2.6.4.9.4.3 0 .7-.1.9-.4 2.5-2.5 9.2-9.2 9.4-9.3 2.8-2.8 2.8-7.4 0-10.3-1.4-1.4-3.3-2.1-5.1-2.1-1.9 0-3.7.7-5.1 2.1-1.4-1.4-3.3-2.1-5.1-2.1-1.9 0-3.7.7-5.1 2.1-2.8 2.8-2.8 7.4 0 10.3 0 .1 6.7 6.8 9.2 9.3zm0 3.2"/></g></svg>