<svg xmlns="http://www.w3.org/2000/svg" viewBox="0 0 96 96"><style>.st0{fill:#a3a3a3}.st1{fill:#ffc847}.st2{display:none}</style><g id="wedding-rings"><path class="st2" d="M59.9 41.3c-11.6 0-21 9.4-21 21s9.4 21 21 21 21-9.4 21-21-9.4-21-21-21zm0 40.5c-9.9 0-18-8.1-18-18s8.1-18 18-18 18 8.1 18 18-8 18-18 18z"/><path class="st1" d="M61.4 41.3c-1.6 0-3.1.2-4.6.5 1.1 1.2 2.1 2.6 3 4.1.5 0 1.1-.1 1.6-.1 9.9 0 18 8.1 18 18s-8.1 18-18 18-18-8.1-18-18c0-6.3 3.2-11.8 8.1-15-.9-1.1-2-2.1-3.2-2.9-4.8 3.8-7.9 9.8-7.9 16.4 0 11.6 9.4 21 21 21s21-9.4 21-21-9.4-21-21-21z"/><path class="st0" d="M37.6 35.2c-13.3 0-24 10.7-24 24s10.7 24 24 24c3.5 0 6.8-.7 9.7-2.1-.2-.1-.4-.3-.6-.4-.4-.3-.8-.6-1.1-.9a19.8 19.8 0 0 1-8 1.7C26.2 81.5 17 72.3 17 60.9s9.2-20.6 20.6-20.6c11.4 0 20.6 9.2 20.6 20.6 0 5.6-2.8 11.2-6.3 14.9.5.5 1.1 1 1.7 1.4 4.6-4.4 8.1-11.2 8.1-18-.1-13.3-10.8-24-24.1-24z"/></g></svg>