<svg xmlns="http://www.w3.org/2000/svg" viewBox="0 0 96 96"><style>.st0{fill:#a3a3a3}.st1{fill:#ffc847}.st2{display:none}</style><g id="women-rings"><path class="st1" d="M47.5 33.9c.1.1.3.2.5.2s.3-.1.5-.2l4.9-4.9c1.5-1.5 1.5-3.9 0-5.4-.7-.7-1.7-1.1-2.7-1.1-1 0-1.9.4-2.7 1.1-.7-.7-1.7-1.1-2.7-1.1-1 0-2 .4-2.7 1.1-1.5 1.5-1.5 3.9 0 5.4l4.9 4.9zm0 1.7"/><path class="st0" d="M57.8 28.8l-4.9 4.7C63.8 35.8 72 45.4 72 57c0 13.3-10.7 24-24 24S24 70.3 24 57c0-11.6 8.2-21.3 19.1-23.5l-4.9-4.7C27.6 32.7 20 43 20 55c0 15.5 12.5 28 28 28s28-12.5 28-28c0-12-7.5-22.2-18.2-26.2z"/></g></svg>