<svg xmlns="http://www.w3.org/2000/svg" width="138.1" height="51.122" viewBox="0 0 138.1 51.122"><path d="M0 27.553v13.076h14.17v-2.486H3.148v-3.148H9.51v-2.316H3.148v-2.811h10.869v-2.314H0v-.001zm18.836 0h-3.15V37.62c0 .648.029 1.76.742 2.377.492.432 1.328.633 2.654.633h8.646c1.51 0 2.285-.262 2.684-.633.342-.309.742-.957.742-2.348V27.553h-3.148v10.59h-9.17v-10.59zm15.037 0v13.076h3.148v-4.895h3.057l5.406 4.895h4.568l-6.146-4.895h1.73c.68 0 1.637-.123 2.193-.494.801-.555.863-1.449.863-2.006v-3.15c0-.555-.063-1.42-.773-1.977-.336-.277-.986-.555-2.283-.555H33.873v.001zm10.467 2.315c.309 0 .801.031 1.08.248.311.248.311.586.311.801v1.453c0 .279 0 .617-.342.836-.123.059-.4.215-1.111.215h-7.256v-3.553h7.318zm6.205 7.66c0 .492 0 1.758.648 2.406.496.494 1.484.695 2.75.695h10.096c.896 0 2.102-.045 2.748-.725.59-.619.65-1.607.65-2.225V30.64c0-.557 0-1.791-.65-2.408-.709-.68-2.133-.68-2.748-.68H53.818c-1.234 0-2.098.186-2.563.617-.711.648-.711 1.945-.711 2.471v6.888h.001zm3.152.615v-8.121h10.588v8.121H53.697zm23.791-2.779h5.154v2.779h-9.939v-8.121h9.939v1.389l3.152-.521v-.402c0-.465-.033-1.699-.773-2.348-.521-.463-1.574-.586-2.625-.586h-9.447c-1.668 0-2.346.338-2.656.617-.709.617-.74 1.637-.74 2.471v6.887c0 .832.031 1.852.74 2.469.494.432 1.328.633 2.656.633h9.447c1.73 0 2.379-.354 2.688-.633.648-.584.711-1.666.711-2.469V33.05h-8.307v2.314zm10.344 2.164c0 .492 0 1.758.646 2.406.498.494 1.482.695 2.748.695h10.1c.895 0 2.1-.045 2.744-.725.59-.619.648-1.607.648-2.225V30.64c0-.557 0-1.791-.648-2.408-.711-.68-2.127-.68-2.744-.68H91.105c-1.238 0-2.102.186-2.566.617-.707.648-.707 1.945-.707 2.471v6.888zm3.148.615v-8.121h10.592v8.121H90.98zm19.485-10.59h-3.32v13.076h13.02l.443-2.486h-10.143v-10.59zm10.994 0v13.076h8.002c1.508 0 5.031-.076 7.037-2.145.896-.924 1.602-2.41 1.602-4.449 0-2.529-1.082-3.98-1.881-4.691-.863-.77-2.598-1.791-5.959-1.791h-8.801zm3.152 10.59v-8.275h5.68c1.082 0 2.348.123 3.336.928.865.707 1.201 1.729 1.201 3.088 0 1.422-.406 2.313-.865 2.84-.99 1.141-3.053 1.42-4.6 1.42h-4.752v-.001zM29.18 46.276v4.121h-2.57v-1.541l-.914.182v1.004c0 .195.023.617.264.846.195.184.547.234.926.234h2.102c.557 0 .779-.18.857-.244.227-.229.25-.631.25-.836v-3.766h-.915zm6.787 0v4.846h4.92v-.725h-4.012v-1.439h2.391v-.719h-2.391v-1.244h3.969v-.719h-4.877zm12.892 0l-1.428 3.697-1.336-3.697h-.949l1.873 4.846h.688l1.426-3.613 1.359 3.613h.674l1.854-4.846h-.826l-1.336 3.697-1.393-3.697h-.606zm9.172 0v4.846h4.92v-.725h-4.006v-1.439h2.385v-.719h-2.385v-1.244h3.963v-.719h-4.877zm10.039 0v4.846h4.686v-.725h-3.773v-4.121h-.913zm9.727 0v4.846h4.682v-.725h-3.77v-4.121h-.912zm9.721 0v4.846h4.924v-.725H88.43v-1.439h2.391v-.719H88.43v-1.244h3.965v-.719h-4.877zm10.039 0v4.846h.916v-1.877h1.326l1.93 1.877h1.223l-2.148-1.912h.654c.238 0 .578-.014.816-.285.184-.207.195-.492.195-.664v-1.049c0-.139-.012-.479-.215-.695-.219-.23-.598-.24-.768-.24h-3.929v-.001zm3.486.719c.115 0 .273 0 .377.092.123.104.137.262.137.398v.605c0 .113-.023.252-.1.334-.105.1-.291.1-.379.1h-2.605v-1.529h2.57zm11.135-.719l-1.84 2.1-1.928-2.1h-1.109l2.521 2.727v2.119h.916v-2.119l2.512-2.727h-1.072zM66.957 15.78l-5.766-7.416 5.766-.002V5.517H58.98l2.104-2.673h5.873V0h-7.252l-4.34 5.505 11.592 14.91V15.78zm6.109-10.263v2.845h2.506l-4.35 5.589V2.844h8.076L77.057 0h-8.676v22.245L81.379 5.53l.018-.013h-8.331z" fill="#fff"/></svg>