<svg xmlns="http://www.w3.org/2000/svg" width="17" height="14.867" viewBox="0 0 17 14.867"><path fill="#cd2b0b" d="M4.767.5A4.267 4.267 0 0 0 .5 4.767c0 .587.261 1.271.744 2.067.407.671.975 1.422 1.679 2.241.441.513.93 1.046 1.46 1.597a60.337 60.337 0 0 0 3.77 3.567.536.536 0 0 0 .696 0l.326-.285a59.785 59.785 0 0 0 3.445-3.282 39.674 39.674 0 0 0 1.46-1.597c.704-.819 1.271-1.57 1.678-2.241.483-.796.744-1.48.744-2.067A4.266 4.266 0 0 0 12.235.5c-.563 0-1.123.134-1.672.38a6.234 6.234 0 0 0-1.298.801 7.617 7.617 0 0 0-.765.694 7.828 7.828 0 0 0-.764-.694A6.208 6.208 0 0 0 6.438.88 4.073 4.073 0 0 0 4.767.5"/><path fill="none" stroke="#cd2b0b" stroke-miterlimit="10" d="M4.767.5A4.267 4.267 0 0 0 .5 4.767c0 .587.261 1.271.744 2.067.407.671.975 1.422 1.679 2.241.441.513.93 1.046 1.46 1.597a60.337 60.337 0 0 0 3.77 3.567.536.536 0 0 0 .696 0l.326-.285a59.785 59.785 0 0 0 3.445-3.282 39.674 39.674 0 0 0 1.46-1.597c.704-.819 1.271-1.57 1.678-2.241.483-.796.744-1.48.744-2.067A4.266 4.266 0 0 0 12.235.5c-.563 0-1.123.134-1.672.38a6.234 6.234 0 0 0-1.298.801 7.617 7.617 0 0 0-.765.694 7.828 7.828 0 0 0-.764-.694A6.208 6.208 0 0 0 6.438.88 4.073 4.073 0 0 0 4.767.5z"/></svg>