<svg xmlns="http://www.w3.org/2000/svg" width="17" height="14.867" viewBox="0 0 17 14.867"><path fill="none" stroke="#9b9ea7" stroke-miterlimit="10" d="M4.767.5A4.267 4.267 0 0 0 .5 4.767c0 .587.261 1.271.744 2.067.408.671.975 1.422 1.679 2.241.441.513.93 1.046 1.46 1.597a60.337 60.337 0 0 0 3.77 3.567.532.532 0 0 0 .695 0l.326-.285a59.76 59.76 0 0 0 3.444-3.282c.53-.551 1.02-1.084 1.46-1.597.704-.819 1.271-1.57 1.679-2.241.482-.796.744-1.48.744-2.067A4.266 4.266 0 0 0 12.234.5c-.563 0-1.123.134-1.672.38a6.234 6.234 0 0 0-1.298.801 7.946 7.946 0 0 0-.764.694 7.931 7.931 0 0 0-.763-.694A6.24 6.24 0 0 0 6.438.88 4.073 4.073 0 0 0 4.767.5z"/></svg>