<svg xmlns="http://www.w3.org/2000/svg" width="16.956" height="16.08" viewBox="0 0 16.956 16.08"><path fill="none" stroke="#9b9ea7" stroke-miterlimit="10" d="M10.505 4.044v-.851c-.81-.115-1.365-.303-1.426-.517V1.179c0-.375 1.48-.679 3.309-.679s3.311.304 3.311.679v1.497c-.063.214-.616.402-1.428.517v.851c1.299.149 2.186.446 2.186.789v9.855c0 .492-1.82.892-4.068.892-2.247 0-4.067-.399-4.067-.892V4.833c-.002-.343.885-.64 2.183-.789zm-8.5 3.36v-.603c-.574-.082-.967-.214-1.011-.367V5.373c0-.265 1.05-.481 2.345-.481 1.296 0 2.346.216 2.346.481v1.061c-.044.153-.436.285-1.011.367v.603c.92.105 1.549.316 1.549.559v6.985c0 .349-1.291.631-2.884.631-1.592 0-2.883-.282-2.883-.631V7.963c0-.243.629-.454 1.549-.559z"/></svg>