<svg xmlns="http://www.w3.org/2000/svg" width="16.958" height="16.334" viewBox="0 0 16.958 16.334"><path fill="#9b9ea7" d="M10.519 4.219v-.851c-.811-.115-1.366-.303-1.427-.517V1.354c0-.375 1.481-.679 3.309-.679 1.827 0 3.31.304 3.31.679v1.497c-.062.214-.615.402-1.427.517v.851c1.298.149 2.185.446 2.185.789v9.855c0 .492-1.82.892-4.067.892s-4.068-.399-4.068-.892V5.008c-.001-.343.886-.64 2.185-.789"/><path fill="none" stroke="#9b9ea7" stroke-miterlimit="10" d="M10.519 4.219v-.851c-.811-.115-1.366-.303-1.427-.517V1.354c0-.375 1.481-.679 3.309-.679 1.827 0 3.31.304 3.31.679v1.497c-.062.214-.615.402-1.427.517v.851c1.298.149 2.185.446 2.185.789v9.855c0 .492-1.82.892-4.067.892s-4.068-.399-4.068-.892V5.008c-.001-.343.886-.64 2.185-.789z"/><path fill="#9b9ea7" d="M2.018 7.579v-.603c-.574-.082-.967-.214-1.011-.368v-1.06c0-.265 1.05-.481 2.345-.481 1.296 0 2.346.216 2.346.481v1.061c-.044.153-.436.285-1.011.367v.603c.92.105 1.549.316 1.549.559v6.985c0 .349-1.291.631-2.884.631-1.592 0-2.883-.282-2.883-.631V8.138c0-.243.629-.454 1.549-.559"/><path fill="none" stroke="#9b9ea7" stroke-miterlimit="10" d="M2.018 7.579v-.603c-.574-.082-.967-.214-1.011-.368v-1.06c0-.265 1.05-.481 2.345-.481 1.296 0 2.346.216 2.346.481v1.061c-.044.153-.436.285-1.011.367v.603c.92.105 1.549.316 1.549.559v6.985c0 .349-1.291.631-2.884.631-1.592 0-2.883-.282-2.883-.631V8.138c0-.243.629-.454 1.549-.559z"/></svg>